<svg id="svg" version="1.1" width="400" height="238.671875" viewBox="0 0 400 238.671875" xmlns="http://www.w3.org/2000/svg" xmlns:xlink="http://www.w3.org/1999/xlink" ><g id="svgg"><path id="path0" d="M75.224 36.748 C 75.224 36.863,74.096 37.035,72.716 37.129 C 71.337 37.223,70.209 37.397,70.209 37.516 C 70.209 37.634,69.779 37.731,69.254 37.731 C 68.728 37.731,68.299 37.825,68.299 37.939 C 68.299 38.054,67.654 38.220,66.866 38.309 C 66.078 38.399,65.433 38.574,65.433 38.698 C 65.433 38.823,65.110 38.925,64.716 38.925 C 64.322 38.925,64.000 39.023,64.000 39.142 C 64.000 39.261,63.463 39.432,62.806 39.522 C 62.149 39.613,61.612 39.770,61.612 39.872 C 61.612 39.974,61.228 40.119,60.758 40.195 C 59.751 40.359,58.507 40.877,58.507 41.133 C 58.507 41.232,58.293 41.313,58.031 41.313 C 57.443 41.313,55.642 42.076,55.642 42.325 C 55.642 42.425,55.417 42.507,55.141 42.507 C 54.627 42.507,53.197 43.203,53.055 43.522 C 53.011 43.621,52.871 43.701,52.743 43.701 C 52.357 43.701,49.827 44.979,49.433 45.373 C 49.367 45.439,48.910 45.698,48.418 45.948 C 47.925 46.199,47.522 46.486,47.522 46.586 C 47.522 46.686,47.195 46.840,46.795 46.928 C 46.394 47.016,45.939 47.293,45.782 47.544 C 45.625 47.795,45.305 48.000,45.069 48.000 C 44.834 48.000,44.584 48.151,44.513 48.335 C 44.443 48.519,44.204 48.731,43.983 48.805 C 43.423 48.995,42.741 49.448,41.690 50.328 C 41.494 50.493,41.261 50.627,41.172 50.627 C 41.083 50.627,40.761 50.896,40.457 51.224 C 40.152 51.552,39.817 51.821,39.710 51.821 C 39.430 51.821,38.209 52.994,38.209 53.263 C 38.209 53.389,38.021 53.494,37.791 53.496 C 37.561 53.499,36.908 53.982,36.339 54.571 C 35.770 55.160,35.212 55.642,35.097 55.642 C 34.825 55.642,27.463 63.011,27.463 63.283 C 27.463 63.397,26.872 64.082,26.149 64.805 C 25.427 65.527,24.836 66.224,24.836 66.353 C 24.836 66.482,24.751 66.623,24.648 66.667 C 24.545 66.710,24.088 67.227,23.633 67.815 C 23.178 68.403,22.672 69.028,22.507 69.205 C 22.343 69.382,22.209 69.655,22.209 69.811 C 22.209 69.968,21.940 70.297,21.612 70.544 C 21.284 70.791,21.015 71.099,21.015 71.229 C 21.015 71.360,20.815 71.640,20.571 71.853 C 20.328 72.065,20.052 72.481,19.958 72.776 C 19.865 73.072,19.688 73.313,19.566 73.313 C 19.444 73.313,19.343 73.475,19.343 73.672 C 19.343 73.869,19.238 74.030,19.109 74.030 C 18.980 74.030,18.807 74.299,18.725 74.627 C 18.643 74.955,18.487 75.224,18.378 75.224 C 18.270 75.224,18.105 75.466,18.012 75.761 C 17.918 76.057,17.658 76.460,17.433 76.657 C 17.208 76.854,16.947 77.257,16.854 77.552 C 16.761 77.848,16.584 78.090,16.462 78.090 C 16.339 78.090,16.239 78.251,16.239 78.448 C 16.239 78.645,16.143 78.806,16.026 78.806 C 15.909 78.806,15.739 79.100,15.649 79.460 C 15.558 79.820,15.410 80.169,15.319 80.236 C 14.985 80.482,14.328 81.665,14.328 82.021 C 14.328 82.223,14.229 82.388,14.109 82.388 C 13.988 82.388,13.822 82.690,13.742 83.058 C 13.661 83.427,13.383 83.880,13.126 84.066 C 12.868 84.252,12.657 84.487,12.657 84.588 C 12.657 84.954,11.824 86.687,11.648 86.687 C 11.549 86.687,11.400 87.116,11.316 87.642 C 11.232 88.167,11.069 88.597,10.955 88.597 C 10.840 88.597,10.746 88.758,10.746 88.955 C 10.746 89.152,10.644 89.313,10.518 89.313 C 10.393 89.313,10.220 89.690,10.133 90.149 C 10.047 90.609,9.882 90.985,9.767 90.985 C 9.652 90.985,9.489 91.415,9.405 91.940 C 9.321 92.466,9.159 92.896,9.044 92.896 C 8.930 92.896,8.836 93.057,8.836 93.254 C 8.836 93.451,8.742 93.612,8.628 93.612 C 8.513 93.612,8.351 94.042,8.267 94.567 C 8.182 95.093,8.008 95.522,7.878 95.522 C 7.748 95.522,7.642 95.791,7.642 96.119 C 7.642 96.448,7.534 96.716,7.403 96.716 C 7.272 96.716,7.164 96.942,7.164 97.218 C 7.164 97.674,6.743 98.825,6.193 99.870 C 6.076 100.094,5.910 100.712,5.825 101.243 C 5.740 101.774,5.582 102.209,5.474 102.209 C 5.366 102.209,5.204 102.854,5.115 103.642 C 5.026 104.430,4.860 105.075,4.745 105.075 C 4.631 105.075,4.537 105.283,4.537 105.538 C 4.537 105.793,4.438 106.063,4.317 106.138 C 4.196 106.212,4.022 106.971,3.931 107.823 C 3.840 108.676,3.670 109.373,3.554 109.373 C 3.438 109.373,3.343 109.696,3.343 110.090 C 3.343 110.484,3.245 110.806,3.125 110.806 C 3.005 110.806,2.831 111.612,2.739 112.597 C 2.646 113.582,2.476 114.388,2.360 114.388 C 2.244 114.388,2.149 114.818,2.149 115.343 C 2.149 115.869,2.050 116.299,1.928 116.299 C 1.807 116.299,1.632 117.266,1.539 118.448 C 1.447 119.630,1.288 120.597,1.187 120.597 C 1.086 120.597,0.925 121.967,0.830 123.642 C 0.729 125.401,0.546 126.757,0.394 126.853 C 0.023 127.089,0.012 148.724,0.384 148.964 C 0.537 149.063,0.720 150.384,0.819 152.116 C 0.914 153.756,1.078 155.207,1.185 155.340 C 1.292 155.473,1.457 156.469,1.551 157.554 C 1.645 158.638,1.818 159.585,1.935 159.657 C 2.053 159.730,2.149 160.213,2.149 160.731 C 2.149 161.248,2.248 161.672,2.369 161.672 C 2.490 161.672,2.664 162.370,2.755 163.224 C 2.847 164.078,3.016 164.776,3.132 164.776 C 3.248 164.776,3.343 165.099,3.343 165.493 C 3.343 165.887,3.437 166.209,3.551 166.209 C 3.666 166.209,3.832 166.854,3.921 167.642 C 4.010 168.430,4.186 169.075,4.310 169.075 C 4.435 169.075,4.537 169.343,4.537 169.672 C 4.537 170.000,4.635 170.269,4.754 170.269 C 4.873 170.269,5.044 170.806,5.134 171.463 C 5.225 172.119,5.389 172.657,5.500 172.657 C 5.611 172.657,5.775 173.140,5.863 173.731 C 5.952 174.322,6.120 174.806,6.236 174.806 C 6.353 174.806,6.448 175.021,6.448 175.284 C 6.448 175.546,6.541 175.761,6.656 175.761 C 6.771 175.761,6.933 176.191,7.017 176.716 C 7.101 177.242,7.276 177.672,7.406 177.672 C 7.536 177.672,7.642 177.880,7.642 178.135 C 7.642 178.390,7.741 178.660,7.862 178.735 C 7.983 178.810,8.153 179.192,8.239 179.585 C 8.326 179.977,8.495 180.299,8.616 180.299 C 8.737 180.299,8.836 180.513,8.836 180.776 C 8.836 181.039,8.935 181.254,9.056 181.254 C 9.177 181.254,9.350 181.595,9.442 182.012 C 9.534 182.429,9.812 183.100,10.061 183.504 C 10.310 183.908,10.579 184.427,10.658 184.657 C 10.737 184.887,10.897 185.075,11.013 185.075 C 11.129 185.075,11.224 185.193,11.224 185.337 C 11.224 185.657,11.972 187.297,12.194 187.463 C 12.282 187.528,12.429 187.824,12.521 188.119 C 12.613 188.415,12.789 188.657,12.912 188.657 C 13.034 188.657,13.134 188.818,13.134 189.015 C 13.134 189.212,13.240 189.373,13.369 189.373 C 13.497 189.373,13.670 189.642,13.753 189.970 C 13.835 190.299,13.986 190.567,14.088 190.567 C 14.189 190.567,14.336 190.755,14.413 190.985 C 14.553 191.401,15.051 192.250,15.289 192.478 C 15.358 192.543,15.617 192.919,15.864 193.313 C 16.111 193.707,16.458 194.116,16.635 194.221 C 16.811 194.326,16.955 194.519,16.955 194.650 C 16.955 194.780,17.224 195.156,17.552 195.484 C 17.881 195.813,18.149 196.198,18.149 196.341 C 18.149 196.484,18.525 196.955,18.985 197.389 C 19.445 197.822,19.821 198.287,19.821 198.422 C 19.821 198.717,21.682 200.597,21.973 200.597 C 22.085 200.597,22.250 200.828,22.340 201.111 C 22.562 201.809,25.648 204.896,26.125 204.896 C 26.335 204.896,26.507 205.000,26.507 205.127 C 26.507 205.414,28.893 207.761,29.185 207.761 C 29.301 207.761,29.645 208.030,29.949 208.358 C 30.254 208.687,30.620 208.955,30.763 208.955 C 30.906 208.955,31.270 209.202,31.572 209.504 C 31.874 209.806,32.308 210.125,32.538 210.213 C 32.767 210.301,32.955 210.484,32.955 210.619 C 32.955 210.755,33.159 210.866,33.407 210.866 C 33.656 210.866,33.921 211.027,33.997 211.224 C 34.072 211.421,34.353 211.582,34.619 211.582 C 34.886 211.582,35.104 211.689,35.104 211.820 C 35.104 212.141,37.265 213.482,37.791 213.488 C 38.021 213.490,38.209 213.600,38.209 213.731 C 38.209 213.863,38.370 213.970,38.567 213.970 C 38.764 213.970,38.925 214.069,38.925 214.190 C 38.925 214.311,39.248 214.481,39.642 214.567 C 40.036 214.654,40.358 214.823,40.358 214.944 C 40.358 215.065,40.573 215.164,40.836 215.164 C 41.099 215.164,41.313 215.263,41.313 215.384 C 41.313 215.505,41.636 215.675,42.030 215.761 C 42.424 215.848,42.746 215.992,42.746 216.082 C 42.746 216.317,44.571 217.075,45.136 217.075 C 45.398 217.075,45.612 217.168,45.612 217.283 C 45.612 217.397,46.042 217.560,46.567 217.644 C 47.093 217.728,47.522 217.903,47.522 218.033 C 47.522 218.162,47.791 218.269,48.119 218.269 C 48.448 218.269,48.716 218.368,48.716 218.490 C 48.716 218.612,49.307 218.786,50.030 218.876 C 50.752 218.966,51.343 219.135,51.343 219.251 C 51.343 219.368,51.719 219.463,52.179 219.463 C 52.639 219.463,53.015 219.564,53.015 219.687 C 53.015 219.810,53.770 219.986,54.692 220.077 C 55.614 220.168,56.426 220.335,56.497 220.449 C 56.568 220.563,57.201 220.657,57.905 220.657 C 58.716 220.657,59.220 220.766,59.284 220.955 C 59.361 221.186,61.177 221.254,67.292 221.254 C 73.300 221.254,75.272 221.182,75.499 220.955 C 75.663 220.791,76.367 220.657,77.063 220.657 C 77.759 220.657,78.328 220.562,78.328 220.446 C 78.328 220.330,79.134 220.160,80.119 220.067 C 81.104 219.975,81.910 219.801,81.910 219.681 C 81.910 219.561,82.233 219.463,82.627 219.463 C 83.021 219.463,83.343 219.369,83.343 219.255 C 83.343 219.140,83.988 218.974,84.776 218.885 C 85.564 218.796,86.209 218.620,86.209 218.496 C 86.209 218.371,86.531 218.269,86.925 218.269 C 87.319 218.269,87.642 218.175,87.642 218.060 C 87.642 217.946,88.072 217.783,88.597 217.699 C 89.122 217.615,89.552 217.440,89.552 217.311 C 89.552 217.181,89.794 217.074,90.090 217.073 C 90.385 217.072,90.935 216.911,91.311 216.715 C 91.687 216.519,92.144 216.358,92.326 216.358 C 92.508 216.358,92.657 216.263,92.657 216.146 C 92.657 216.029,93.033 215.863,93.493 215.777 C 93.952 215.691,94.328 215.518,94.328 215.392 C 94.328 215.267,94.597 215.164,94.925 215.164 C 95.254 215.164,95.522 215.065,95.522 214.944 C 95.522 214.823,95.845 214.654,96.239 214.567 C 96.633 214.481,96.955 214.311,96.955 214.190 C 96.955 214.069,97.170 213.970,97.433 213.970 C 97.696 213.970,97.910 213.874,97.910 213.757 C 97.910 213.640,98.179 213.477,98.507 213.394 C 98.836 213.312,99.104 213.148,99.104 213.029 C 99.104 212.911,99.427 212.743,99.821 212.657 C 100.215 212.570,100.537 212.400,100.537 212.280 C 100.537 212.159,100.699 212.060,100.896 212.060 C 101.093 212.060,101.254 211.954,101.254 211.825 C 101.254 211.697,101.522 211.524,101.851 211.441 C 102.179 211.359,102.448 211.208,102.448 211.106 C 102.448 211.005,102.636 210.853,102.866 210.770 C 103.559 210.520,104.454 209.951,104.713 209.597 C 104.847 209.414,105.198 209.187,105.493 209.093 C 105.788 209.000,106.030 208.834,106.030 208.726 C 106.030 208.618,106.299 208.462,106.627 208.380 C 106.955 208.297,107.224 208.124,107.224 207.995 C 107.224 207.867,107.336 207.761,107.473 207.761 C 107.610 207.761,108.012 207.493,108.366 207.164 C 108.720 206.836,109.097 206.567,109.203 206.567 C 109.309 206.567,109.645 206.299,109.949 205.970 C 110.254 205.642,110.575 205.373,110.664 205.373 C 110.849 205.373,111.239 205.060,112.228 204.119 C 112.608 203.758,112.987 203.463,113.071 203.463 C 113.154 203.463,114.083 202.603,115.133 201.552 C 116.184 200.501,117.132 199.642,117.240 199.642 C 117.476 199.642,119.641 197.444,119.642 197.204 C 119.642 197.111,120.540 196.143,121.637 195.053 C 122.735 193.963,123.707 192.836,123.799 192.548 C 123.890 192.260,124.169 191.960,124.418 191.881 C 124.667 191.801,124.938 191.527,125.019 191.271 C 125.100 191.015,125.267 190.806,125.389 190.806 C 125.512 190.806,125.612 190.645,125.612 190.448 C 125.612 190.251,125.711 190.090,125.831 190.090 C 125.952 190.090,126.296 189.687,126.595 189.194 C 126.895 188.701,127.314 188.137,127.527 187.940 C 127.740 187.743,127.984 187.394,128.069 187.164 C 128.154 186.934,128.318 186.746,128.433 186.746 C 128.547 186.746,128.844 186.370,129.091 185.910 C 129.339 185.451,129.624 185.075,129.726 185.075 C 129.827 185.075,129.910 184.913,129.910 184.716 C 129.910 184.519,130.016 184.358,130.145 184.358 C 130.274 184.358,130.446 184.090,130.529 183.761 C 130.611 183.433,130.767 183.164,130.875 183.164 C 130.984 183.164,131.149 182.922,131.242 182.627 C 131.335 182.331,131.596 181.928,131.821 181.731 C 132.046 181.534,132.307 181.131,132.400 180.836 C 132.493 180.540,132.670 180.299,132.792 180.299 C 132.915 180.299,133.015 180.137,133.015 179.940 C 133.015 179.743,133.122 179.582,133.254 179.582 C 133.385 179.582,133.493 179.429,133.493 179.241 C 133.493 179.053,133.627 178.756,133.791 178.580 C 134.257 178.081,134.925 176.800,134.925 176.407 C 134.925 176.211,135.087 175.989,135.284 175.914 C 135.481 175.838,135.642 175.558,135.642 175.291 C 135.642 175.024,135.749 174.806,135.881 174.806 C 136.012 174.806,136.119 174.645,136.119 174.448 C 136.119 174.251,136.218 174.090,136.339 174.090 C 136.460 174.090,136.630 173.767,136.716 173.373 C 136.803 172.979,136.973 172.657,137.094 172.657 C 137.215 172.657,137.313 172.442,137.313 172.179 C 137.313 171.916,137.412 171.701,137.533 171.701 C 137.654 171.701,137.824 171.379,137.910 170.985 C 137.997 170.591,138.167 170.269,138.288 170.269 C 138.409 170.269,138.507 170.054,138.507 169.791 C 138.507 169.528,138.615 169.313,138.746 169.313 C 138.878 169.313,138.986 169.179,138.987 169.015 C 138.987 168.851,139.138 168.428,139.322 168.076 C 139.506 167.723,139.729 167.106,139.817 166.703 C 139.906 166.300,140.077 165.970,140.198 165.970 C 140.319 165.970,140.418 165.755,140.418 165.493 C 140.418 165.230,140.516 165.015,140.636 165.015 C 140.756 165.015,140.926 164.585,141.015 164.060 C 141.104 163.534,141.274 163.104,141.394 163.104 C 141.514 163.104,141.612 162.836,141.612 162.507 C 141.612 162.179,141.718 161.910,141.848 161.910 C 141.978 161.910,142.153 161.481,142.237 160.955 C 142.321 160.430,142.483 160.000,142.598 160.000 C 142.712 160.000,142.806 159.731,142.806 159.403 C 142.806 159.075,142.903 158.806,143.022 158.806 C 143.141 158.806,143.313 158.269,143.403 157.612 C 143.493 156.955,143.658 156.418,143.769 156.418 C 143.880 156.418,144.043 155.934,144.132 155.343 C 144.221 154.752,144.388 154.269,144.505 154.269 C 144.621 154.269,144.716 154.006,144.716 153.686 C 144.716 153.365,144.811 153.044,144.927 152.972 C 145.043 152.901,145.212 152.250,145.303 151.526 C 145.393 150.801,145.567 150.209,145.689 150.209 C 145.811 150.209,145.910 149.893,145.910 149.507 C 145.910 149.120,146.012 148.742,146.135 148.665 C 146.259 148.589,146.434 147.777,146.524 146.860 C 146.615 145.944,146.773 145.194,146.876 145.194 C 146.979 145.194,147.139 144.388,147.232 143.403 C 147.324 142.418,147.494 141.612,147.610 141.612 C 147.726 141.612,147.821 141.084,147.821 140.438 C 147.821 139.792,147.922 139.228,148.046 139.184 C 148.170 139.140,148.346 138.003,148.438 136.657 C 148.530 135.310,148.698 134.209,148.810 134.209 C 148.923 134.209,149.015 133.412,149.015 132.438 C 149.015 131.233,149.110 130.635,149.313 130.567 C 149.546 130.489,149.612 128.066,149.612 119.522 C 149.612 110.978,149.546 108.555,149.313 108.478 C 149.113 108.411,149.015 107.835,149.015 106.726 C 149.015 105.818,148.923 105.075,148.810 105.075 C 148.698 105.075,148.530 103.973,148.438 102.627 C 148.346 101.281,148.169 100.077,148.046 99.952 C 147.922 99.827,147.821 99.317,147.821 98.818 C 147.821 98.319,147.726 97.910,147.610 97.910 C 147.494 97.910,147.324 97.104,147.232 96.119 C 147.139 95.134,146.986 94.328,146.891 94.328 C 146.796 94.328,146.587 93.657,146.427 92.836 C 145.930 90.284,145.862 90.030,145.672 90.030 C 145.571 90.030,145.414 89.439,145.324 88.716 C 145.234 87.994,145.060 87.403,144.938 87.403 C 144.816 87.403,144.716 87.134,144.716 86.806 C 144.716 86.478,144.623 86.209,144.508 86.209 C 144.394 86.209,144.233 85.793,144.152 85.285 C 144.071 84.777,143.843 84.052,143.645 83.673 C 143.448 83.295,143.286 82.849,143.285 82.683 C 143.284 82.374,142.802 81.408,142.542 81.194 C 142.462 81.128,142.323 80.672,142.233 80.179 C 142.142 79.687,141.965 79.284,141.840 79.284 C 141.715 79.284,141.612 79.015,141.612 78.687 C 141.612 78.358,141.516 78.090,141.400 78.090 C 141.283 78.090,141.117 77.713,141.031 77.254 C 140.944 76.794,140.771 76.418,140.646 76.418 C 140.521 76.418,140.418 76.257,140.418 76.060 C 140.418 75.863,140.315 75.701,140.190 75.701 C 140.065 75.701,139.891 75.325,139.805 74.866 C 139.719 74.406,139.561 74.030,139.455 74.030 C 139.349 74.030,139.191 73.707,139.104 73.313 C 139.018 72.919,138.874 72.597,138.784 72.597 C 138.694 72.597,138.434 72.167,138.206 71.642 C 137.979 71.116,137.685 70.687,137.553 70.687 C 137.421 70.687,137.313 70.472,137.313 70.209 C 137.313 69.946,137.218 69.731,137.101 69.731 C 136.983 69.731,136.820 69.463,136.738 69.134 C 136.655 68.806,136.483 68.537,136.354 68.537 C 136.225 68.537,136.119 68.376,136.119 68.179 C 136.119 67.982,136.012 67.821,135.881 67.821 C 135.749 67.821,135.642 67.667,135.642 67.480 C 135.642 67.292,135.507 66.992,135.343 66.813 C 134.993 66.431,134.514 65.701,134.279 65.194 C 134.087 64.779,133.997 64.656,133.023 63.491 C 132.625 63.014,132.299 62.548,132.299 62.456 C 132.299 62.364,131.922 61.923,131.463 61.477 C 131.003 61.030,130.627 60.567,130.627 60.447 C 130.627 60.328,130.331 59.891,129.970 59.478 C 129.609 59.065,129.045 58.400,128.716 58.001 C 128.388 57.603,127.980 57.150,127.809 56.996 C 127.639 56.842,127.370 56.578,127.212 56.409 C 126.876 56.048,124.576 53.745,124.128 53.320 C 123.617 52.834,123.234 52.450,122.577 51.761 C 122.233 51.400,121.854 51.104,121.736 51.104 C 121.617 51.104,121.165 50.728,120.732 50.269 C 120.298 49.809,119.827 49.433,119.684 49.433 C 119.541 49.433,119.178 49.186,118.876 48.884 C 118.574 48.582,118.139 48.263,117.910 48.175 C 117.680 48.087,117.493 47.921,117.493 47.806 C 117.493 47.692,117.116 47.395,116.657 47.147 C 116.197 46.900,115.821 46.614,115.821 46.513 C 115.821 46.411,115.660 46.328,115.463 46.328 C 115.266 46.328,115.104 46.228,115.104 46.106 C 115.104 45.983,114.871 45.809,114.586 45.718 C 114.300 45.628,113.846 45.348,113.575 45.096 C 113.305 44.844,112.840 44.577,112.542 44.502 C 112.244 44.427,112.000 44.284,112.000 44.183 C 112.000 44.082,111.663 43.933,111.252 43.850 C 110.840 43.768,110.323 43.493,110.103 43.239 C 109.883 42.986,109.414 42.706,109.060 42.617 C 108.707 42.528,108.418 42.360,108.418 42.243 C 108.418 42.126,108.149 42.030,107.821 42.030 C 107.493 42.030,107.224 41.927,107.224 41.802 C 107.224 41.676,106.848 41.503,106.388 41.417 C 105.928 41.331,105.552 41.165,105.552 41.048 C 105.552 40.931,105.403 40.836,105.221 40.836 C 105.039 40.836,104.583 40.675,104.206 40.479 C 103.830 40.283,103.281 40.122,102.985 40.121 C 102.690 40.120,102.448 40.024,102.448 39.908 C 102.448 39.791,101.964 39.624,101.373 39.535 C 100.782 39.446,100.299 39.273,100.299 39.150 C 100.299 39.026,100.036 38.925,99.716 38.925 C 99.395 38.925,99.073 38.828,99.000 38.710 C 98.926 38.592,98.221 38.420,97.433 38.328 C 96.644 38.237,95.939 38.065,95.866 37.947 C 95.793 37.828,95.318 37.731,94.812 37.731 C 94.305 37.731,93.855 37.626,93.811 37.497 C 93.767 37.368,92.630 37.191,91.284 37.103 C 89.937 37.015,88.836 36.852,88.836 36.740 C 88.836 36.629,85.773 36.537,82.030 36.537 C 78.267 36.537,75.224 36.631,75.224 36.748 M62.794 65.646 C 62.866 65.759,63.382 65.928,63.939 66.021 C 64.497 66.115,65.013 66.289,65.087 66.409 C 65.162 66.529,65.431 66.627,65.686 66.627 C 65.941 66.627,66.149 66.722,66.149 66.839 C 66.149 66.956,66.525 67.122,66.985 67.208 C 67.445 67.294,67.821 67.468,67.821 67.593 C 67.821 67.718,67.982 67.821,68.179 67.821 C 68.376 67.821,68.537 67.926,68.537 68.055 C 68.537 68.184,68.806 68.357,69.134 68.439 C 69.463 68.522,69.731 68.672,69.731 68.774 C 69.731 68.876,69.919 69.022,70.149 69.100 C 70.710 69.288,71.709 69.945,72.469 70.627 C 72.652 70.791,72.855 70.925,72.921 70.925 C 72.987 70.925,73.435 71.298,73.918 71.753 C 74.401 72.208,74.994 72.643,75.236 72.720 C 75.479 72.797,75.744 73.070,75.825 73.326 C 75.906 73.582,76.063 73.791,76.175 73.791 C 76.503 73.791,79.520 76.955,79.525 77.303 C 79.526 77.407,79.955 77.869,80.478 78.328 C 81.000 78.788,81.429 79.273,81.430 79.405 C 81.432 79.538,81.701 79.936,82.030 80.291 C 82.358 80.645,82.627 80.997,82.627 81.075 C 82.627 81.152,82.896 81.505,83.224 81.859 C 83.552 82.213,83.821 82.638,83.821 82.804 C 83.821 82.969,83.931 83.104,84.066 83.104 C 84.200 83.104,84.414 83.376,84.540 83.708 C 84.666 84.039,84.932 84.373,85.131 84.450 C 85.330 84.526,85.493 84.795,85.493 85.048 C 85.493 85.301,85.644 85.566,85.829 85.637 C 86.014 85.708,86.231 86.027,86.311 86.346 C 86.391 86.664,86.562 86.925,86.691 86.925 C 86.820 86.925,86.925 87.087,86.925 87.284 C 86.925 87.481,87.033 87.642,87.164 87.642 C 87.296 87.642,87.403 87.860,87.403 88.127 C 87.403 88.394,87.564 88.674,87.761 88.749 C 87.958 88.825,88.119 89.090,88.119 89.339 C 88.119 89.588,88.218 89.791,88.339 89.791 C 88.460 89.791,88.630 90.113,88.716 90.507 C 88.803 90.901,88.973 91.224,89.094 91.224 C 89.215 91.224,89.313 91.385,89.313 91.582 C 89.313 91.779,89.419 91.940,89.548 91.940 C 89.677 91.940,89.849 92.209,89.932 92.537 C 90.014 92.866,90.165 93.134,90.268 93.134 C 90.370 93.134,90.525 93.510,90.611 93.970 C 90.697 94.430,90.871 94.806,90.996 94.806 C 91.121 94.806,91.224 94.967,91.224 95.164 C 91.224 95.361,91.318 95.522,91.432 95.522 C 91.547 95.522,91.709 95.952,91.793 96.478 C 91.877 97.003,92.052 97.433,92.182 97.433 C 92.312 97.433,92.418 97.648,92.418 97.910 C 92.418 98.173,92.517 98.388,92.638 98.388 C 92.759 98.388,92.930 98.718,93.018 99.121 C 93.107 99.523,93.330 100.141,93.514 100.494 C 93.697 100.846,93.848 101.269,93.849 101.433 C 93.850 101.597,93.958 101.731,94.090 101.731 C 94.221 101.731,94.328 102.000,94.328 102.328 C 94.328 102.657,94.422 102.925,94.537 102.925 C 94.651 102.925,94.814 103.355,94.898 103.881 C 94.982 104.406,95.157 104.836,95.286 104.836 C 95.416 104.836,95.522 105.104,95.522 105.433 C 95.522 105.761,95.620 106.030,95.739 106.030 C 95.858 106.030,96.029 106.567,96.119 107.224 C 96.210 107.881,96.381 108.418,96.500 108.418 C 96.619 108.418,96.716 108.687,96.716 109.015 C 96.716 109.343,96.814 109.612,96.933 109.612 C 97.052 109.612,97.223 110.149,97.313 110.806 C 97.404 111.463,97.555 112.000,97.649 112.000 C 97.743 112.000,97.939 112.618,98.086 113.373 C 98.489 115.449,98.681 116.167,98.869 116.299 C 98.963 116.364,99.167 117.170,99.322 118.090 C 99.477 119.009,99.665 120.110,99.739 120.537 C 99.813 120.964,99.958 121.313,100.061 121.313 C 100.164 121.313,100.325 122.174,100.418 123.225 C 100.511 124.277,100.683 125.196,100.801 125.269 C 100.919 125.342,101.015 125.879,101.015 126.462 C 101.015 127.045,101.111 127.522,101.227 127.522 C 101.344 127.522,101.518 128.839,101.614 130.448 C 101.717 132.180,101.898 133.443,102.058 133.544 C 102.442 133.786,102.442 155.169,102.058 155.412 C 101.907 155.507,101.712 156.656,101.615 158.030 C 101.519 159.376,101.345 160.478,101.228 160.478 C 101.111 160.478,101.015 160.907,101.015 161.433 C 101.015 161.958,100.920 162.388,100.804 162.388 C 100.688 162.388,100.518 163.087,100.427 163.940 C 100.335 164.794,100.174 165.493,100.068 165.493 C 99.962 165.493,99.816 165.788,99.743 166.149 C 99.348 168.104,99.011 169.446,98.887 169.552 C 98.600 169.796,98.205 170.665,98.041 171.411 C 97.948 171.833,97.775 172.179,97.655 172.179 C 97.536 172.179,97.370 172.609,97.286 173.134 C 97.202 173.660,97.039 174.090,96.925 174.090 C 96.810 174.090,96.716 174.304,96.716 174.567 C 96.716 174.830,96.621 175.045,96.504 175.045 C 96.386 175.045,96.223 175.313,96.141 175.642 C 96.058 175.970,95.885 176.239,95.757 176.239 C 95.628 176.239,95.522 176.400,95.522 176.597 C 95.522 176.794,95.427 176.955,95.309 176.955 C 95.192 176.955,95.029 177.224,94.947 177.552 C 94.864 177.881,94.691 178.149,94.563 178.149 C 94.434 178.149,94.328 178.310,94.328 178.507 C 94.328 178.704,94.248 178.866,94.149 178.867 C 94.051 178.868,93.701 179.265,93.373 179.750 C 92.515 181.016,89.244 184.272,88.635 184.466 C 88.351 184.556,88.119 184.729,88.119 184.852 C 88.119 184.974,87.958 185.075,87.761 185.075 C 87.564 185.075,87.403 185.180,87.403 185.309 C 87.403 185.438,87.134 185.611,86.806 185.693 C 86.478 185.775,86.209 185.939,86.209 186.056 C 86.209 186.173,85.940 186.269,85.612 186.269 C 85.284 186.269,85.015 186.375,85.015 186.505 C 85.015 186.634,84.585 186.809,84.060 186.893 C 83.534 186.977,83.104 187.140,83.104 187.254 C 83.104 187.369,82.675 187.463,82.149 187.463 C 81.624 187.463,81.194 187.570,81.194 187.701 C 81.194 187.845,80.239 187.940,78.806 187.940 C 77.373 187.940,76.418 187.845,76.418 187.701 C 76.418 187.570,75.988 187.463,75.463 187.463 C 74.937 187.463,74.507 187.365,74.507 187.246 C 74.507 187.127,73.970 186.956,73.313 186.866 C 72.657 186.775,72.119 186.604,72.119 186.485 C 72.119 186.366,71.904 186.269,71.642 186.269 C 71.379 186.269,71.164 186.171,71.164 186.051 C 71.164 185.931,70.734 185.760,70.209 185.672 C 69.684 185.583,69.254 185.412,69.254 185.292 C 69.254 185.173,69.093 185.075,68.896 185.075 C 68.699 185.075,68.537 184.969,68.537 184.840 C 68.537 184.712,68.269 184.539,67.940 184.456 C 67.612 184.374,67.343 184.222,67.343 184.119 C 67.343 184.017,67.075 183.865,66.746 183.783 C 66.418 183.700,66.149 183.527,66.149 183.398 C 66.149 183.270,66.027 183.164,65.878 183.164 C 65.729 183.164,65.358 182.896,65.054 182.567 C 64.749 182.239,64.391 181.970,64.257 181.970 C 64.123 181.970,63.500 181.447,62.873 180.807 C 62.245 180.167,61.495 179.570,61.206 179.481 C 60.917 179.392,60.616 179.115,60.537 178.866 C 60.458 178.616,60.190 178.348,59.940 178.269 C 59.691 178.190,59.421 177.915,59.339 177.659 C 59.258 177.403,59.091 177.194,58.969 177.194 C 58.846 177.194,58.746 177.089,58.746 176.961 C 58.746 176.832,58.155 176.127,57.433 175.393 C 56.710 174.658,56.119 173.929,56.119 173.772 C 56.119 173.615,55.851 173.285,55.522 173.038 C 55.194 172.792,54.925 172.490,54.925 172.367 C 54.925 172.245,54.791 171.995,54.627 171.812 C 53.966 171.075,53.731 170.759,53.731 170.605 C 53.731 170.516,53.463 170.194,53.134 169.890 C 52.806 169.585,52.537 169.170,52.537 168.967 C 52.537 168.763,52.435 168.597,52.310 168.597 C 52.185 168.597,51.895 168.194,51.666 167.701 C 51.437 167.209,51.110 166.720,50.938 166.615 C 50.767 166.510,50.627 166.214,50.627 165.958 C 50.627 165.702,50.524 165.493,50.399 165.493 C 50.274 165.493,49.984 165.090,49.755 164.597 C 49.526 164.104,49.267 163.648,49.179 163.582 C 49.091 163.516,48.944 163.221,48.852 162.925 C 48.760 162.630,48.584 162.388,48.462 162.388 C 48.339 162.388,48.239 162.227,48.239 162.030 C 48.239 161.833,48.131 161.672,48.000 161.672 C 47.869 161.672,47.761 161.565,47.761 161.434 C 47.761 161.027,46.941 159.284,46.750 159.284 C 46.649 159.284,46.564 159.149,46.559 158.985 C 46.555 158.821,46.343 158.257,46.090 157.731 C 45.836 157.206,45.624 156.642,45.620 156.478 C 45.616 156.313,45.504 156.179,45.373 156.179 C 45.242 156.179,45.134 156.018,45.134 155.821 C 45.134 155.624,45.027 155.463,44.896 155.463 C 44.764 155.463,44.657 155.237,44.657 154.961 C 44.657 154.461,43.986 152.823,43.689 152.597 C 43.602 152.531,43.457 152.075,43.367 151.582 C 43.276 151.090,43.100 150.687,42.974 150.687 C 42.849 150.687,42.746 150.418,42.746 150.090 C 42.746 149.761,42.640 149.493,42.510 149.493 C 42.380 149.493,42.206 149.063,42.122 148.537 C 42.038 148.012,41.887 147.582,41.788 147.582 C 41.688 147.582,41.534 147.101,41.446 146.513 C 41.358 145.925,41.185 145.381,41.061 145.305 C 40.937 145.228,40.836 144.904,40.836 144.583 C 40.836 144.262,40.741 144.000,40.624 144.000 C 40.508 144.000,40.340 143.519,40.252 142.931 C 40.164 142.343,39.991 141.799,39.867 141.723 C 39.743 141.646,39.642 141.268,39.642 140.881 C 39.642 140.495,39.542 140.179,39.420 140.179 C 39.298 140.179,39.125 139.587,39.034 138.863 C 38.944 138.138,38.775 137.487,38.659 137.416 C 38.543 137.344,38.448 136.969,38.448 136.583 C 38.448 136.197,38.353 135.881,38.237 135.881 C 38.121 135.881,37.951 135.182,37.860 134.328 C 37.768 133.475,37.614 132.776,37.516 132.776 C 37.361 132.776,37.081 131.217,36.625 127.821 C 36.550 127.263,36.403 126.806,36.297 126.806 C 36.192 126.806,36.029 125.678,35.935 124.299 C 35.841 122.919,35.669 121.791,35.554 121.791 C 35.438 121.791,35.343 120.994,35.343 120.020 C 35.343 118.820,35.247 118.217,35.046 118.150 C 34.612 118.005,34.611 98.831,35.045 98.687 C 35.242 98.621,35.343 98.068,35.343 97.055 C 35.343 96.212,35.437 95.522,35.551 95.522 C 35.666 95.522,35.835 94.555,35.927 93.373 C 36.020 92.191,36.195 91.224,36.316 91.224 C 36.438 91.224,36.537 90.794,36.537 90.269 C 36.537 89.743,36.631 89.313,36.745 89.313 C 36.860 89.313,37.026 88.669,37.115 87.881 C 37.204 87.093,37.367 86.448,37.477 86.448 C 37.587 86.448,37.750 85.857,37.840 85.134 C 37.931 84.412,38.078 83.821,38.168 83.821 C 38.362 83.821,38.834 82.774,39.058 81.848 C 39.145 81.486,39.313 81.130,39.429 81.058 C 39.546 80.986,39.642 80.718,39.642 80.464 C 39.642 80.209,39.737 80.000,39.854 80.000 C 39.971 80.000,40.137 79.624,40.223 79.164 C 40.309 78.704,40.482 78.328,40.608 78.328 C 40.733 78.328,40.836 78.167,40.836 77.970 C 40.836 77.773,40.932 77.612,41.049 77.612 C 41.166 77.612,41.329 77.343,41.411 77.015 C 41.494 76.687,41.662 76.418,41.785 76.418 C 41.908 76.418,42.078 76.045,42.163 75.590 C 42.260 75.077,42.491 74.708,42.771 74.619 C 43.020 74.540,43.224 74.333,43.224 74.158 C 43.224 73.984,43.546 73.496,43.940 73.075 C 44.334 72.653,44.657 72.165,44.657 71.991 C 44.657 71.817,44.872 71.606,45.134 71.522 C 45.397 71.439,45.612 71.279,45.612 71.166 C 45.612 70.926,47.008 69.493,47.242 69.492 C 47.331 69.492,47.779 69.169,48.239 68.774 C 48.699 68.380,49.263 67.997,49.493 67.923 C 49.722 67.849,49.910 67.697,49.910 67.585 C 49.910 67.473,50.233 67.310,50.627 67.224 C 51.021 67.137,51.343 66.968,51.343 66.847 C 51.343 66.726,51.504 66.627,51.701 66.627 C 51.899 66.627,52.060 66.529,52.060 66.410 C 52.060 66.291,52.597 66.120,53.254 66.030 C 53.910 65.940,54.448 65.774,54.448 65.663 C 54.448 65.202,62.500 65.185,62.794 65.646 " stroke="none" fill="#4f007d" fill-rule="evenodd"></path><path id="path1" d="" stroke="none" fill="#ff0000" fill-rule="evenodd"></path><path id="path2" d="M169.791 0.167 C 169.069 0.222,168.376 0.367,168.251 0.491 C 168.126 0.615,167.781 0.716,167.483 0.716 C 166.643 0.716,163.405 2.016,163.064 2.490 C 162.976 2.613,162.749 2.735,162.560 2.763 C 161.969 2.850,158.806 5.731,158.806 6.181 C 158.806 6.328,158.706 6.448,158.583 6.448 C 158.461 6.448,158.285 6.690,158.193 6.985 C 158.101 7.281,157.953 7.576,157.866 7.642 C 157.616 7.829,156.896 9.467,156.896 9.847 C 156.896 10.035,156.820 10.265,156.727 10.357 C 156.635 10.450,156.500 10.817,156.429 11.173 C 156.164 12.492,156.365 41.552,156.640 41.552 C 156.747 41.552,156.912 50.284,157.007 60.955 C 157.105 71.927,157.274 80.457,157.396 80.585 C 157.517 80.713,157.612 85.026,157.612 90.436 C 157.612 96.693,157.695 100.060,157.851 100.060 C 158.003 100.060,158.090 102.125,158.090 105.777 C 158.090 108.921,158.178 111.549,158.286 111.616 C 158.394 111.682,158.452 112.118,158.415 112.585 C 158.379 113.051,158.451 113.433,158.577 113.433 C 158.703 113.433,158.806 113.703,158.806 114.033 C 158.806 114.363,158.906 114.820,159.027 115.048 C 159.149 115.276,159.328 115.678,159.425 115.940 C 159.521 116.203,159.624 116.472,159.653 116.537 C 159.682 116.603,159.785 116.899,159.881 117.194 C 159.977 117.490,160.151 117.731,160.267 117.731 C 160.383 117.731,160.478 117.950,160.478 118.216 C 160.478 118.483,160.639 118.763,160.836 118.839 C 161.033 118.915,161.194 119.077,161.194 119.200 C 161.194 119.687,164.299 122.877,164.985 123.095 C 165.264 123.184,165.493 123.363,165.493 123.493 C 165.493 123.623,165.588 123.671,165.704 123.599 C 165.821 123.527,166.048 123.627,166.209 123.821 C 166.370 124.015,166.597 124.115,166.714 124.043 C 166.830 123.971,166.925 124.026,166.925 124.165 C 166.925 124.304,167.140 124.418,167.403 124.418 C 167.666 124.418,167.881 124.499,167.882 124.597 C 167.885 124.855,169.103 125.384,169.347 125.233 C 169.460 125.163,169.552 125.220,169.552 125.359 C 169.552 125.498,169.767 125.612,170.030 125.612 C 170.293 125.612,170.507 125.719,170.507 125.851 C 170.507 125.982,170.749 126.090,171.045 126.091 C 171.340 126.092,171.890 126.253,172.266 126.449 C 172.642 126.645,173.254 126.806,173.625 126.806 C 173.996 126.806,174.369 126.917,174.453 127.054 C 174.646 127.365,182.626 127.337,182.819 127.024 C 182.898 126.895,191.427 126.806,203.701 126.806 C 217.276 126.806,224.500 126.723,224.597 126.567 C 224.688 126.421,226.629 126.328,229.626 126.328 C 232.721 126.328,234.507 126.416,234.507 126.567 C 234.507 126.711,235.502 126.806,237.015 126.806 C 238.394 126.806,239.522 126.714,239.522 126.601 C 239.522 126.488,240.139 126.332,240.892 126.254 C 241.645 126.176,242.299 126.000,242.344 125.862 C 242.390 125.725,242.580 125.612,242.766 125.612 C 242.952 125.612,243.104 125.487,243.104 125.333 C 243.104 125.180,243.165 125.115,243.239 125.189 C 243.641 125.591,245.936 122.426,246.136 121.192 C 246.210 120.739,246.364 120.426,246.478 120.496 C 246.593 120.567,246.687 120.243,246.687 119.775 C 246.687 119.308,246.802 118.925,246.944 118.925 C 247.091 118.925,247.171 118.575,247.130 118.102 C 247.091 117.650,247.136 117.202,247.231 117.107 C 247.326 117.013,247.403 113.912,247.403 110.217 C 247.403 106.208,247.496 103.405,247.634 103.268 C 247.765 103.137,247.917 100.292,247.985 96.712 C 248.051 93.234,248.154 89.073,248.213 87.465 C 248.275 85.808,248.226 84.484,248.101 84.407 C 247.980 84.332,247.881 84.008,247.881 83.687 C 247.881 83.367,247.773 83.104,247.642 83.104 C 247.510 83.104,247.403 82.925,247.403 82.705 C 247.403 82.222,245.620 80.471,244.507 79.862 C 243.805 79.478,243.088 79.418,238.925 79.396 C 234.361 79.371,232.029 79.448,221.254 79.977 C 213.153 80.375,208.000 80.291,208.000 79.761 C 208.000 79.659,207.624 79.505,207.164 79.419 C 206.704 79.333,206.328 79.159,206.328 79.034 C 206.328 78.909,206.206 78.806,206.056 78.806 C 205.783 78.806,203.701 76.788,203.701 76.524 C 203.701 76.447,203.540 76.223,203.343 76.026 C 203.146 75.829,202.985 75.460,202.985 75.207 C 202.985 74.954,202.878 74.746,202.746 74.746 C 202.615 74.746,202.507 74.433,202.507 74.050 C 202.507 73.667,202.373 73.309,202.209 73.254 C 201.976 73.176,201.896 70.343,201.844 60.398 C 201.806 53.222,201.680 47.433,201.556 47.164 C 201.430 46.892,201.282 39.035,201.213 28.896 C 201.074 8.580,201.110 10.319,200.821 10.140 C 200.698 10.064,200.597 9.638,200.597 9.194 C 200.597 8.750,200.490 8.320,200.358 8.239 C 200.227 8.158,200.119 7.886,200.119 7.636 C 200.119 7.107,199.420 5.517,198.985 5.058 C 198.821 4.884,198.687 4.633,198.687 4.500 C 198.687 4.146,196.043 1.676,195.343 1.376 C 194.575 1.047,194.415 0.996,193.552 0.805 C 193.158 0.717,192.759 0.527,192.666 0.382 C 192.497 0.123,172.829 -0.063,169.791 0.167 M264.000 18.786 C 263.343 18.846,262.704 18.995,262.579 19.119 C 262.454 19.242,262.058 19.343,261.698 19.343 C 261.338 19.343,260.985 19.437,260.915 19.551 C 260.844 19.665,260.354 19.827,259.826 19.912 C 259.298 19.996,258.866 20.172,258.866 20.301 C 258.866 20.431,258.704 20.537,258.507 20.537 C 258.310 20.537,258.149 20.645,258.149 20.776 C 258.149 20.907,257.996 21.015,257.808 21.015 C 257.620 21.015,257.320 21.149,257.141 21.313 C 256.773 21.651,256.042 22.136,255.554 22.366 C 255.125 22.569,253.857 23.854,253.254 24.698 C 252.991 25.066,252.642 25.508,252.478 25.681 C 252.313 25.854,252.179 26.102,252.179 26.232 C 252.179 26.361,252.099 26.503,252.000 26.547 C 251.647 26.704,250.534 28.552,250.370 29.254 C 250.278 29.648,250.102 30.098,249.980 30.254 C 249.857 30.411,249.695 31.351,249.620 32.344 C 249.545 33.337,249.391 34.149,249.279 34.149 C 249.167 34.149,249.075 34.848,249.075 35.701 C 249.075 36.555,249.166 37.254,249.278 37.254 C 249.390 37.254,249.554 38.189,249.642 39.332 C 249.729 40.476,249.880 41.470,249.975 41.541 C 250.208 41.716,250.772 43.183,250.920 44.000 C 250.986 44.361,251.125 44.657,251.230 44.657 C 251.335 44.657,251.493 45.087,251.582 45.612 C 251.671 46.137,251.841 46.567,251.961 46.567 C 252.081 46.567,252.179 46.836,252.179 47.164 C 252.179 47.493,252.287 47.761,252.418 47.761 C 252.549 47.761,252.657 48.003,252.658 48.299 C 252.659 48.594,252.820 49.144,253.016 49.520 C 253.213 49.896,253.373 50.353,253.373 50.535 C 253.373 50.717,253.471 50.866,253.590 50.866 C 253.709 50.866,253.880 51.403,253.970 52.060 C 254.060 52.716,254.222 53.254,254.330 53.254 C 254.437 53.254,254.598 53.683,254.686 54.208 C 254.775 54.732,254.946 55.222,255.066 55.296 C 255.185 55.371,255.284 55.640,255.284 55.895 C 255.284 56.150,255.391 56.358,255.522 56.358 C 255.654 56.358,255.761 56.584,255.761 56.859 C 255.761 57.311,256.174 58.445,256.720 59.493 C 256.831 59.707,256.996 60.272,257.085 60.749 C 257.175 61.227,257.343 61.676,257.460 61.748 C 257.576 61.820,257.672 62.088,257.672 62.342 C 257.672 62.597,257.773 62.806,257.896 62.806 C 258.019 62.806,258.193 63.290,258.281 63.881 C 258.370 64.472,258.511 64.955,258.594 64.955 C 258.678 64.955,258.957 65.654,259.215 66.507 C 259.473 67.361,259.768 68.060,259.872 68.060 C 259.975 68.060,260.060 68.301,260.061 68.597 C 260.062 68.893,260.223 69.442,260.419 69.818 C 260.616 70.195,260.776 70.705,260.776 70.953 C 260.776 71.200,260.874 71.403,260.994 71.403 C 261.114 71.403,261.284 71.832,261.373 72.357 C 261.462 72.882,261.632 73.372,261.752 73.446 C 261.872 73.520,261.970 73.789,261.970 74.044 C 261.970 74.299,262.071 74.507,262.194 74.507 C 262.318 74.507,262.491 74.991,262.580 75.582 C 262.668 76.173,262.836 76.657,262.952 76.657 C 263.069 76.657,263.164 76.882,263.164 77.158 C 263.164 77.616,263.589 78.773,264.139 79.818 C 264.260 80.046,264.359 80.422,264.360 80.653 C 264.360 80.885,264.522 81.382,264.718 81.759 C 264.914 82.135,265.075 82.592,265.075 82.774 C 265.075 82.956,265.170 83.104,265.286 83.104 C 265.403 83.104,265.571 83.588,265.659 84.179 C 265.748 84.770,265.912 85.254,266.023 85.254 C 266.135 85.254,266.299 85.683,266.388 86.208 C 266.476 86.732,266.647 87.222,266.767 87.296 C 266.887 87.371,266.985 87.640,266.985 87.895 C 266.985 88.150,267.093 88.358,267.224 88.358 C 267.355 88.358,267.463 88.600,267.464 88.896 C 267.465 89.191,267.626 89.741,267.822 90.117 C 268.019 90.493,268.179 91.004,268.179 91.251 C 268.179 91.499,268.277 91.701,268.397 91.701 C 268.517 91.701,268.687 92.131,268.776 92.655 C 268.865 93.180,269.035 93.670,269.155 93.744 C 269.275 93.818,269.373 94.088,269.373 94.342 C 269.373 94.597,269.467 94.806,269.581 94.806 C 269.696 94.806,269.862 95.257,269.950 95.809 C 270.038 96.361,270.197 96.925,270.303 97.063 C 270.410 97.201,270.695 97.904,270.938 98.627 C 271.181 99.349,271.466 100.042,271.571 100.167 C 271.675 100.292,271.761 100.544,271.761 100.728 C 271.761 100.912,271.933 101.455,272.144 101.934 C 272.795 103.418,272.906 103.719,273.328 105.134 C 273.553 105.890,273.818 106.507,273.916 106.507 C 274.014 106.507,274.168 106.991,274.256 107.582 C 274.345 108.173,274.509 108.657,274.621 108.657 C 274.732 108.657,274.896 109.086,274.985 109.611 C 275.074 110.135,275.244 110.625,275.364 110.699 C 275.484 110.774,275.582 111.096,275.582 111.417 C 275.582 111.738,275.690 112.000,275.821 112.000 C 275.952 112.000,276.060 112.225,276.060 112.500 C 276.060 112.776,276.208 113.286,276.389 113.635 C 277.897 116.539,277.873 116.662,275.302 119.297 C 274.077 120.553,273.039 121.680,272.996 121.802 C 272.953 121.924,272.228 122.713,271.384 123.557 C 270.541 124.400,269.851 125.157,269.851 125.239 C 269.851 125.321,269.018 126.235,268.000 127.269 C 266.982 128.303,265.504 129.861,264.716 130.730 C 263.928 131.600,262.128 133.500,260.716 134.952 C 259.304 136.405,258.149 137.688,258.149 137.805 C 258.149 137.922,257.767 138.370,257.300 138.800 C 256.301 139.720,254.531 141.549,253.226 143.008 C 252.716 143.579,251.245 145.137,249.957 146.471 C 248.669 147.804,247.272 149.315,246.852 149.828 C 246.433 150.341,245.377 151.486,244.505 152.373 C 243.634 153.259,242.881 154.100,242.834 154.242 C 242.786 154.384,241.618 155.662,240.239 157.083 C 238.123 159.263,232.456 165.229,231.463 166.324 C 231.299 166.504,231.164 166.710,231.164 166.780 C 231.164 166.850,230.755 167.315,230.254 167.812 C 229.433 168.628,229.084 169.090,228.126 170.627 C 227.962 170.890,227.761 171.293,227.677 171.522 C 227.594 171.752,227.431 171.940,227.315 171.940 C 227.199 171.940,227.104 172.058,227.104 172.203 C 227.104 172.457,226.569 173.788,226.134 174.616 C 226.016 174.841,225.850 175.458,225.765 175.990 C 225.680 176.521,225.517 176.955,225.402 176.955 C 225.288 176.955,225.194 177.256,225.194 177.624 C 225.194 177.992,225.060 178.427,224.896 178.591 C 224.673 178.813,224.597 180.349,224.597 184.597 C 224.597 188.845,224.673 190.381,224.896 190.603 C 225.060 190.767,225.194 191.196,225.194 191.556 C 225.194 191.916,225.287 192.268,225.401 192.339 C 225.516 192.409,225.678 192.899,225.762 193.428 C 225.847 193.956,226.022 194.388,226.152 194.388 C 226.282 194.388,226.388 194.657,226.388 194.985 C 226.388 195.313,226.487 195.582,226.608 195.582 C 226.729 195.582,226.894 195.884,226.975 196.252 C 227.056 196.621,227.333 197.074,227.591 197.260 C 227.849 197.446,228.060 197.782,228.060 198.006 C 228.060 198.230,228.194 198.556,228.358 198.730 C 228.735 199.130,229.680 200.749,230.040 201.612 C 230.190 201.973,230.398 202.269,230.500 202.269 C 230.603 202.269,230.687 202.430,230.687 202.627 C 230.687 202.824,230.782 202.985,230.899 202.985 C 231.017 202.985,231.180 203.254,231.262 203.582 C 231.345 203.910,231.517 204.179,231.646 204.179 C 231.775 204.179,231.881 204.340,231.881 204.537 C 231.881 204.734,231.976 204.896,232.094 204.896 C 232.211 204.896,232.374 205.164,232.456 205.493 C 232.539 205.821,232.712 206.090,232.840 206.090 C 232.969 206.090,233.075 206.249,233.075 206.444 C 233.075 206.638,233.504 207.500,234.030 208.358 C 234.555 209.217,234.985 210.024,234.985 210.153 C 234.985 210.282,235.090 210.388,235.219 210.388 C 235.348 210.388,235.521 210.657,235.603 210.985 C 235.686 211.313,235.822 211.583,235.906 211.585 C 235.991 211.586,236.265 212.016,236.516 212.540 C 236.767 213.064,237.063 213.493,237.173 213.493 C 237.283 213.493,237.373 213.694,237.373 213.941 C 237.373 214.188,237.516 214.507,237.690 214.652 C 237.864 214.796,238.306 215.508,238.673 216.233 C 239.040 216.959,239.424 217.552,239.525 217.552 C 239.626 217.552,239.776 217.819,239.858 218.144 C 240.042 218.876,243.152 222.090,243.677 222.090 C 243.887 222.090,244.060 222.197,244.060 222.328 C 244.060 222.460,244.221 222.567,244.418 222.567 C 244.615 222.567,244.776 222.670,244.776 222.795 C 244.776 222.921,245.152 223.094,245.612 223.180 C 246.072 223.266,246.448 223.432,246.448 223.549 C 246.448 223.666,246.710 223.761,247.031 223.761 C 247.351 223.761,247.680 223.869,247.761 224.000 C 247.842 224.131,248.648 224.239,249.552 224.239 C 250.456 224.239,251.262 224.131,251.343 224.000 C 251.424 223.869,251.807 223.761,252.193 223.761 C 252.579 223.761,252.896 223.667,252.896 223.553 C 252.896 223.438,253.325 223.276,253.851 223.192 C 254.376 223.108,254.806 222.953,254.806 222.848 C 254.806 222.742,255.177 222.511,255.630 222.333 C 256.423 222.022,259.582 219.009,259.582 218.564 C 259.582 218.445,259.904 218.060,260.299 217.709 C 260.693 217.358,261.015 216.959,261.015 216.823 C 261.015 216.687,261.284 216.307,261.612 215.978 C 261.940 215.650,262.209 215.284,262.209 215.164 C 262.209 215.045,262.451 214.689,262.746 214.374 C 263.533 213.534,264.130 212.729,264.419 212.119 C 264.559 211.824,264.764 211.582,264.874 211.582 C 264.984 211.582,265.075 211.420,265.075 211.222 C 265.075 211.024,265.343 210.629,265.672 210.343 C 266.000 210.058,266.269 209.679,266.269 209.502 C 266.269 209.324,266.426 209.119,266.618 209.045 C 266.810 208.971,267.026 208.725,267.098 208.498 C 267.170 208.270,267.419 207.877,267.652 207.624 C 267.884 207.371,268.447 206.627,268.903 205.970 C 269.358 205.313,269.919 204.602,270.149 204.390 C 270.379 204.177,270.567 203.887,270.567 203.744 C 270.567 203.601,270.836 203.216,271.164 202.887 C 271.493 202.559,271.761 202.183,271.761 202.053 C 271.761 201.922,271.898 201.729,272.065 201.624 C 272.233 201.519,272.575 201.110,272.826 200.716 C 273.076 200.322,273.423 199.858,273.596 199.684 C 273.769 199.511,273.910 199.241,273.910 199.085 C 273.910 198.929,274.125 198.667,274.388 198.503 C 274.651 198.339,274.866 198.086,274.866 197.940 C 274.866 197.794,275.161 197.329,275.522 196.905 C 275.884 196.482,276.340 195.891,276.537 195.593 C 277.116 194.716,278.155 193.354,278.678 192.785 C 278.945 192.494,279.164 192.152,279.164 192.026 C 279.164 191.899,279.302 191.653,279.470 191.480 C 279.638 191.306,280.389 190.304,281.140 189.254 C 281.890 188.203,282.585 187.236,282.685 187.104 C 282.784 186.973,283.342 186.221,283.924 185.433 C 284.507 184.645,285.044 183.946,285.118 183.881 C 285.475 183.566,286.806 181.735,286.806 181.559 C 286.806 181.449,287.021 181.204,287.284 181.015 C 287.546 180.826,287.761 180.538,287.761 180.376 C 287.761 180.214,288.030 179.813,288.358 179.484 C 288.687 179.156,288.955 178.791,288.955 178.673 C 288.955 178.554,289.197 178.175,289.493 177.829 C 290.879 176.206,291.104 175.910,291.104 175.713 C 291.104 175.596,291.373 175.232,291.701 174.904 C 292.030 174.575,292.299 174.204,292.299 174.079 C 292.299 173.953,292.487 173.652,292.716 173.409 C 293.341 172.749,293.888 172.050,294.369 171.299 C 294.606 170.929,294.935 170.485,295.101 170.311 C 295.267 170.138,295.403 169.891,295.403 169.763 C 295.403 169.635,295.650 169.283,295.952 168.981 L 296.501 168.432 296.788 169.040 C 296.946 169.374,297.075 169.841,297.075 170.077 C 297.075 170.314,297.168 170.507,297.283 170.507 C 297.397 170.507,297.561 170.942,297.646 171.473 C 297.788 172.366,298.187 173.326,298.533 173.612 C 298.612 173.678,298.754 174.148,298.848 174.656 C 298.941 175.165,299.109 175.756,299.220 175.970 C 299.766 177.017,300.179 178.152,300.179 178.603 C 300.179 178.879,300.275 179.104,300.391 179.104 C 300.508 179.104,300.677 179.494,300.766 179.970 C 300.855 180.446,301.016 181.010,301.123 181.223 C 301.407 181.791,301.746 182.650,302.217 184.000 C 302.447 184.657,302.714 185.301,302.812 185.433 C 302.910 185.564,303.069 186.044,303.167 186.500 C 303.265 186.955,303.429 187.492,303.533 187.694 C 304.059 188.716,304.478 189.852,304.478 190.257 C 304.478 190.506,304.563 190.813,304.667 190.937 C 304.772 191.062,305.058 191.782,305.303 192.537 C 305.548 193.293,305.825 193.910,305.919 193.910 C 306.012 193.910,306.157 194.339,306.240 194.863 C 306.324 195.386,306.600 196.184,306.854 196.636 C 307.107 197.087,307.387 197.842,307.476 198.313 C 307.564 198.784,307.732 199.228,307.848 199.300 C 307.964 199.372,308.060 199.693,308.060 200.014 C 308.060 200.335,308.155 200.597,308.272 200.597 C 308.389 200.597,308.559 201.000,308.652 201.493 C 308.744 201.985,308.902 202.496,309.003 202.627 C 309.105 202.758,309.263 203.181,309.356 203.566 C 309.448 203.951,309.731 204.697,309.986 205.223 C 310.240 205.749,310.448 206.347,310.449 206.552 C 310.450 206.757,310.611 207.233,310.807 207.609 C 311.004 207.986,311.164 208.442,311.164 208.624 C 311.164 208.806,311.259 208.955,311.376 208.955 C 311.492 208.955,311.660 209.439,311.749 210.030 C 311.837 210.621,312.011 211.104,312.134 211.104 C 312.257 211.104,312.358 211.373,312.358 211.701 C 312.358 212.030,312.459 212.299,312.582 212.299 C 312.706 212.299,312.879 212.782,312.968 213.373 C 313.056 213.964,313.215 214.448,313.320 214.448 C 313.424 214.448,313.583 214.877,313.671 215.402 C 313.760 215.926,313.931 216.416,314.051 216.490 C 314.171 216.565,314.269 216.834,314.269 217.089 C 314.269 217.344,314.364 217.552,314.480 217.552 C 314.597 217.552,314.765 218.036,314.853 218.627 C 314.942 219.218,315.115 219.701,315.239 219.701 C 315.362 219.701,315.463 219.916,315.463 220.179 C 315.463 220.442,315.556 220.657,315.671 220.657 C 315.786 220.657,315.949 221.091,316.034 221.622 C 316.119 222.153,316.284 222.771,316.402 222.996 C 316.814 223.779,317.373 225.149,317.373 225.375 C 317.373 227.094,323.015 234.307,324.804 234.875 C 325.051 234.953,325.254 235.117,325.254 235.240 C 325.254 235.362,325.415 235.463,325.612 235.463 C 325.809 235.463,325.970 235.563,325.970 235.685 C 325.970 235.808,326.212 235.984,326.507 236.076 C 326.803 236.168,327.099 236.315,327.164 236.403 C 327.331 236.626,328.971 237.373,329.293 237.373 C 329.439 237.373,329.745 237.477,329.973 237.604 C 332.239 238.868,343.535 239.229,344.257 238.061 C 344.328 237.945,344.702 237.851,345.089 237.851 C 345.475 237.851,345.791 237.754,345.791 237.636 C 345.791 237.518,346.544 237.346,347.464 237.254 C 348.384 237.161,349.196 236.989,349.269 236.871 C 349.342 236.753,349.711 236.657,350.090 236.657 C 350.468 236.657,350.838 236.560,350.911 236.441 C 350.984 236.323,351.689 236.151,352.478 236.060 C 353.266 235.968,353.971 235.796,354.044 235.678 C 354.118 235.560,354.493 235.463,354.880 235.463 C 355.266 235.463,355.582 235.369,355.582 235.255 C 355.582 235.140,356.332 234.973,357.248 234.883 C 358.165 234.792,358.968 234.631,359.034 234.525 C 359.100 234.419,359.797 234.259,360.584 234.170 C 361.371 234.081,362.079 233.905,362.156 233.780 C 362.233 233.655,362.720 233.552,363.238 233.552 C 363.756 233.552,364.179 233.457,364.179 233.341 C 364.179 233.225,364.878 233.055,365.731 232.964 C 366.585 232.873,367.284 232.699,367.284 232.578 C 367.284 232.457,367.713 232.358,368.239 232.358 C 368.764 232.358,369.194 232.263,369.194 232.147 C 369.194 232.031,369.891 231.862,370.744 231.770 C 371.596 231.679,372.355 231.505,372.429 231.384 C 372.504 231.263,372.929 231.164,373.373 231.164 C 373.817 231.164,374.241 231.067,374.314 230.949 C 374.387 230.830,375.119 230.656,375.940 230.562 C 376.761 230.468,377.487 230.319,377.552 230.231 C 377.659 230.089,379.616 229.671,381.791 229.325 C 382.218 229.257,382.567 229.118,382.567 229.017 C 382.567 228.915,383.265 228.757,384.117 228.666 C 384.969 228.575,385.728 228.401,385.803 228.280 C 385.877 228.159,386.308 228.060,386.760 228.060 C 387.212 228.060,387.582 227.965,387.582 227.849 C 387.582 227.733,388.281 227.563,389.134 227.471 C 389.988 227.380,390.687 227.206,390.687 227.085 C 390.687 226.965,390.895 226.866,391.150 226.866 C 391.405 226.866,391.672 226.770,391.744 226.654 C 391.816 226.537,392.253 226.371,392.714 226.285 C 393.175 226.198,393.552 226.051,393.552 225.958 C 393.552 225.865,393.890 225.639,394.302 225.456 C 395.270 225.028,398.210 222.126,398.448 221.363 C 398.549 221.040,398.698 220.722,398.778 220.657 C 400.445 219.302,400.394 212.338,398.692 208.868 C 397.537 206.515,396.626 204.848,396.390 204.657 C 396.308 204.591,395.883 203.946,395.444 203.224 C 395.005 202.501,394.561 201.875,394.457 201.831 C 394.353 201.787,394.269 201.637,394.269 201.498 C 394.269 201.229,392.402 198.171,392.115 197.970 C 392.022 197.904,391.862 197.582,391.761 197.254 C 391.660 196.925,391.508 196.603,391.423 196.537 C 391.153 196.329,389.731 193.998,389.731 193.763 C 389.731 193.639,389.520 193.386,389.263 193.200 C 389.005 193.015,388.726 192.556,388.644 192.181 C 388.562 191.806,388.289 191.371,388.038 191.215 C 387.787 191.058,387.582 190.746,387.582 190.522 C 387.582 190.297,387.448 190.027,387.284 189.922 C 387.119 189.817,386.799 189.328,386.571 188.836 C 386.343 188.343,386.048 187.940,385.914 187.940 C 385.781 187.940,385.672 187.769,385.672 187.559 C 385.672 187.350,385.430 186.841,385.134 186.430 C 384.411 185.423,384.038 184.800,383.857 184.299 C 383.773 184.069,383.611 183.881,383.495 183.881 C 383.379 183.881,383.284 183.727,383.284 183.539 C 383.284 183.352,383.149 183.056,382.984 182.883 C 382.820 182.709,382.473 182.164,382.214 181.672 C 381.954 181.179,381.671 180.776,381.584 180.776 C 381.496 180.776,381.357 180.507,381.275 180.179 C 381.193 179.851,381.020 179.582,380.891 179.582 C 380.762 179.582,380.657 179.421,380.657 179.224 C 380.657 179.027,380.561 178.866,380.444 178.866 C 380.327 178.866,380.163 178.597,380.081 178.269 C 379.999 177.940,379.826 177.672,379.697 177.672 C 379.568 177.672,379.463 177.510,379.463 177.313 C 379.463 177.116,379.355 176.955,379.224 176.955 C 379.093 176.955,378.985 176.802,378.985 176.614 C 378.985 176.426,378.851 176.126,378.687 175.947 C 378.251 175.472,377.797 174.747,377.637 174.269 C 377.560 174.039,377.402 173.851,377.286 173.851 C 377.170 173.851,377.075 173.697,377.075 173.510 C 377.075 173.322,376.936 173.026,376.767 172.853 C 376.598 172.679,376.270 172.134,376.039 171.642 C 375.808 171.149,375.517 170.746,375.392 170.746 C 375.267 170.746,375.164 170.543,375.164 170.294 C 375.164 170.046,375.003 169.780,374.806 169.705 C 374.609 169.629,374.448 169.349,374.448 169.082 C 374.448 168.815,374.366 168.597,374.266 168.597 C 374.083 168.597,373.652 167.889,373.356 167.104 C 373.269 166.875,373.108 166.687,372.998 166.687 C 372.888 166.687,372.610 166.284,372.378 165.791 C 372.147 165.299,371.820 164.754,371.651 164.580 C 371.482 164.406,371.343 164.120,371.343 163.943 C 371.343 163.766,371.259 163.586,371.156 163.542 C 370.909 163.437,368.955 160.315,368.955 160.026 C 368.955 159.902,368.869 159.765,368.764 159.721 C 368.490 159.607,366.328 156.075,366.328 155.741 C 366.328 155.588,366.221 155.463,366.090 155.463 C 365.958 155.463,365.851 155.301,365.851 155.104 C 365.851 154.907,365.751 154.746,365.628 154.746 C 365.506 154.746,365.338 154.534,365.256 154.275 C 365.074 153.703,363.464 151.315,363.185 151.204 C 363.075 151.160,362.985 150.935,362.985 150.703 C 362.985 150.472,362.770 150.034,362.507 149.731 C 362.245 149.428,362.030 149.088,362.030 148.975 C 362.030 148.789,360.414 146.200,360.118 145.910 C 360.050 145.845,359.784 145.388,359.525 144.896 C 359.267 144.403,358.973 144.000,358.871 144.000 C 358.770 144.000,358.687 143.875,358.687 143.722 C 358.687 143.476,357.347 141.200,357.023 140.896 C 356.953 140.830,356.691 140.373,356.440 139.881 C 356.189 139.388,355.902 138.985,355.802 138.985 C 355.702 138.985,355.554 138.684,355.473 138.315 C 355.392 137.947,355.115 137.493,354.857 137.307 C 354.599 137.121,354.388 136.839,354.388 136.681 C 354.388 136.522,354.254 136.250,354.090 136.077 C 353.925 135.903,353.605 135.358,353.377 134.866 C 353.149 134.373,352.854 133.970,352.720 133.970 C 352.587 133.970,352.478 133.827,352.478 133.653 C 352.478 133.307,351.050 131.034,350.752 130.905 C 350.650 130.862,350.567 130.620,350.567 130.368 C 350.567 130.116,350.484 129.910,350.383 129.910 C 350.281 129.910,349.990 129.507,349.736 129.015 C 349.482 128.522,349.054 127.799,348.786 127.408 C 348.061 126.350,347.726 125.779,347.558 125.313 C 347.475 125.084,347.324 124.896,347.222 124.896 C 347.120 124.896,346.969 124.627,346.887 124.299 C 346.805 123.970,346.632 123.701,346.503 123.701 C 346.374 123.701,346.269 123.540,346.269 123.343 C 346.269 123.146,346.161 122.985,346.030 122.985 C 345.899 122.985,345.791 122.832,345.791 122.644 C 345.791 122.456,345.644 122.156,345.464 121.976 C 345.285 121.796,345.062 121.413,344.971 121.123 C 344.879 120.834,344.703 120.597,344.581 120.597 C 344.458 120.597,344.358 120.436,344.358 120.239 C 344.358 120.042,344.262 119.881,344.145 119.881 C 344.028 119.881,343.865 119.612,343.783 119.284 C 343.700 118.955,343.527 118.687,343.398 118.687 C 343.270 118.687,343.164 118.525,343.164 118.328 C 343.164 118.131,343.057 117.970,342.925 117.970 C 342.794 117.970,342.687 117.817,342.687 117.629 C 342.687 117.441,342.552 117.141,342.388 116.962 C 342.031 116.573,341.550 115.838,341.329 115.343 C 341.241 115.146,341.108 114.931,341.032 114.866 C 340.832 114.691,340.369 113.908,339.903 112.955 C 339.677 112.496,339.298 111.863,339.060 111.550 C 338.581 110.920,338.902 110.132,340.215 108.715 C 340.524 108.382,340.778 107.991,340.781 107.846 C 340.783 107.701,341.159 107.153,341.617 106.629 C 342.074 106.106,342.448 105.611,342.448 105.530 C 342.448 105.399,342.827 104.921,343.994 103.582 C 344.194 103.352,344.358 103.082,344.358 102.983 C 344.358 102.883,344.627 102.511,344.955 102.157 C 345.284 101.803,345.552 101.417,345.552 101.300 C 345.552 101.182,345.848 100.756,346.209 100.353 C 347.082 99.378,347.298 99.102,347.840 98.266 C 348.092 97.878,348.487 97.343,348.716 97.079 C 349.736 95.904,349.851 95.750,349.851 95.560 C 349.851 95.449,350.120 95.046,350.449 94.664 C 350.778 94.282,351.108 93.782,351.182 93.552 C 351.255 93.322,351.416 93.134,351.538 93.134 C 351.661 93.134,351.761 92.982,351.761 92.796 C 351.761 92.610,351.843 92.422,351.944 92.378 C 352.044 92.334,352.633 91.600,353.253 90.746 C 353.872 89.893,354.596 88.956,354.861 88.665 C 355.126 88.374,355.343 88.067,355.343 87.983 C 355.343 87.785,356.836 85.875,357.073 85.771 C 357.172 85.727,357.254 85.585,357.254 85.456 C 357.254 85.326,357.388 85.070,357.552 84.887 C 358.198 84.167,358.448 83.835,358.448 83.698 C 358.448 83.506,359.951 81.574,360.179 81.473 C 360.278 81.429,360.358 81.241,360.358 81.055 C 360.358 80.869,360.458 80.716,360.581 80.716 C 360.703 80.716,360.864 80.528,360.938 80.299 C 361.011 80.069,361.447 79.460,361.905 78.946 C 362.364 78.432,362.802 77.814,362.878 77.573 C 362.955 77.332,363.117 77.134,363.240 77.134 C 363.362 77.134,363.463 76.973,363.463 76.776 C 363.463 76.579,363.563 76.418,363.685 76.418 C 363.808 76.418,363.969 76.228,364.042 75.995 C 364.116 75.762,364.473 75.245,364.835 74.845 C 365.196 74.445,365.707 73.817,365.970 73.450 C 366.233 73.083,366.582 72.641,366.746 72.468 C 366.910 72.295,367.045 72.035,367.045 71.890 C 367.045 71.745,367.192 71.570,367.373 71.501 C 367.553 71.432,367.900 71.005,368.144 70.553 C 368.387 70.101,368.669 69.731,368.771 69.731 C 368.872 69.731,368.955 69.616,368.955 69.475 C 368.955 69.335,369.090 69.070,369.254 68.887 C 369.962 68.097,370.149 67.826,370.149 67.592 C 370.149 67.455,370.254 67.343,370.382 67.343 C 370.510 67.343,370.768 67.048,370.956 66.687 C 371.144 66.325,371.577 65.707,371.918 65.313 C 372.258 64.919,372.537 64.533,372.537 64.454 C 372.537 64.376,372.759 64.054,373.029 63.738 C 373.300 63.422,373.730 62.922,373.985 62.625 C 374.239 62.329,374.448 61.996,374.448 61.886 C 374.448 61.776,374.717 61.374,375.046 60.992 C 375.375 60.611,375.705 60.110,375.779 59.881 C 375.852 59.651,376.013 59.463,376.135 59.463 C 376.258 59.463,376.358 59.301,376.358 59.104 C 376.358 58.907,376.457 58.746,376.578 58.746 C 376.698 58.746,377.013 58.397,377.278 57.970 C 377.543 57.543,377.955 56.973,378.193 56.703 C 378.674 56.160,379.141 55.469,379.391 54.931 C 379.482 54.737,379.803 54.348,380.106 54.067 C 380.409 53.787,380.657 53.482,380.657 53.390 C 380.657 53.235,381.799 51.615,382.100 51.343 C 382.172 51.278,382.492 50.848,382.811 50.388 C 383.129 49.928,383.634 49.285,383.934 48.958 C 384.233 48.631,384.478 48.283,384.478 48.184 C 384.478 47.996,384.882 47.471,385.971 46.244 C 386.333 45.836,386.690 45.312,386.764 45.080 C 386.837 44.847,386.991 44.657,387.104 44.657 C 387.218 44.657,387.380 44.438,387.465 44.171 C 387.550 43.905,387.853 43.431,388.138 43.120 C 388.998 42.180,389.254 41.823,389.254 41.562 C 389.254 41.425,389.359 41.313,389.488 41.313 C 389.617 41.313,389.790 41.045,389.872 40.716 C 389.954 40.388,390.118 40.119,390.235 40.119 C 390.352 40.119,390.448 39.967,390.448 39.781 C 390.448 39.382,391.203 37.886,391.463 37.771 C 391.562 37.727,391.710 37.270,391.792 36.756 C 391.874 36.242,392.035 35.821,392.150 35.821 C 392.264 35.821,392.358 35.445,392.358 34.985 C 392.358 34.525,392.466 34.149,392.597 34.149 C 392.744 34.149,392.836 32.920,392.836 30.939 C 392.836 29.057,392.737 27.669,392.597 27.582 C 392.466 27.501,392.358 27.118,392.358 26.732 C 392.358 26.346,392.259 26.030,392.138 26.030 C 392.017 26.030,391.848 25.707,391.761 25.313 C 391.675 24.919,391.512 24.597,391.400 24.597 C 391.288 24.597,391.125 24.371,391.037 24.095 C 390.816 23.397,389.312 21.935,388.239 21.374 C 387.746 21.117,387.343 20.823,387.343 20.722 C 387.343 20.620,387.137 20.537,386.886 20.537 C 386.634 20.537,386.391 20.428,386.347 20.294 C 386.302 20.160,385.702 19.984,385.013 19.903 C 384.325 19.821,383.761 19.662,383.761 19.549 C 383.761 19.279,376.664 19.281,376.497 19.551 C 376.426 19.665,375.614 19.832,374.692 19.923 C 373.770 20.014,373.015 20.190,373.015 20.313 C 373.015 20.436,372.746 20.537,372.418 20.537 C 372.090 20.537,371.821 20.645,371.821 20.776 C 371.821 20.907,371.573 21.015,371.270 21.015 C 370.966 21.015,370.510 21.173,370.255 21.366 C 370.000 21.558,369.603 21.720,369.373 21.724 C 369.143 21.728,368.955 21.830,368.955 21.951 C 368.955 22.072,368.633 22.242,368.239 22.328 C 367.845 22.415,367.522 22.585,367.522 22.706 C 367.522 22.826,367.313 22.925,367.057 22.925 C 366.800 22.925,366.505 23.060,366.400 23.224 C 366.185 23.560,365.519 24.006,364.710 24.355 C 364.411 24.484,364.104 24.753,364.028 24.952 C 363.952 25.151,363.766 25.313,363.616 25.314 C 363.312 25.314,360.266 28.213,358.839 29.861 C 358.332 30.446,356.720 32.202,355.257 33.763 C 353.794 35.324,352.275 36.953,351.881 37.384 C 349.909 39.537,346.626 43.039,344.597 45.155 C 343.349 46.456,341.952 47.950,341.493 48.475 C 341.033 49.000,339.260 50.869,337.552 52.628 C 335.845 54.386,334.179 56.173,333.851 56.597 C 333.522 57.022,333.114 57.491,332.944 57.640 C 332.543 57.990,332.424 58.118,330.927 59.797 C 330.237 60.572,328.758 62.141,327.642 63.284 C 326.525 64.427,325.128 65.915,324.537 66.590 C 323.946 67.266,322.630 68.673,321.612 69.718 C 320.594 70.762,319.761 71.683,319.761 71.764 C 319.761 71.845,319.170 72.503,318.448 73.225 C 317.725 73.948,317.134 74.639,317.134 74.762 C 317.134 74.885,316.919 74.985,316.657 74.985 C 316.394 74.985,316.179 74.870,316.179 74.729 C 316.179 74.588,316.018 74.312,315.821 74.115 C 315.624 73.918,315.463 73.550,315.463 73.296 C 315.463 73.043,315.368 72.836,315.252 72.836 C 315.136 72.836,314.978 72.648,314.900 72.418 C 314.754 71.980,314.247 71.130,314.012 70.925 C 313.936 70.860,313.668 70.432,313.415 69.975 C 313.162 69.517,312.821 68.999,312.657 68.823 C 312.493 68.647,312.358 68.359,312.358 68.182 C 312.358 68.005,312.277 67.825,312.178 67.781 C 311.900 67.658,309.970 64.600,309.970 64.282 C 309.970 64.127,309.870 64.000,309.747 64.000 C 309.625 64.000,309.451 63.766,309.360 63.481 C 309.269 63.196,309.020 62.773,308.807 62.542 C 308.593 62.310,308.149 61.604,307.821 60.971 C 307.493 60.338,307.143 59.785,307.045 59.741 C 306.946 59.698,306.866 59.509,306.866 59.323 C 306.866 59.137,306.783 58.985,306.681 58.985 C 306.580 58.985,306.287 58.582,306.031 58.090 C 305.499 57.067,304.445 55.561,304.179 55.443 C 304.081 55.399,304.000 55.174,304.000 54.942 C 304.000 54.710,303.785 54.273,303.522 53.970 C 303.260 53.667,303.045 53.327,303.045 53.214 C 303.045 53.030,301.436 50.449,301.135 50.149 C 301.069 50.084,300.808 49.654,300.555 49.194 C 300.303 48.734,300.034 48.304,299.958 48.239 C 299.883 48.173,299.552 47.602,299.224 46.969 C 298.896 46.337,298.466 45.635,298.269 45.411 C 298.072 45.186,297.705 44.602,297.455 44.113 C 297.204 43.624,296.917 43.224,296.817 43.224 C 296.717 43.224,296.569 42.922,296.488 42.554 C 296.407 42.185,296.130 41.732,295.872 41.546 C 295.614 41.360,295.403 41.078,295.403 40.920 C 295.403 40.761,295.269 40.487,295.104 40.312 C 294.940 40.136,294.601 39.591,294.350 39.101 C 294.100 38.610,293.804 38.209,293.694 38.209 C 293.583 38.209,293.493 38.084,293.493 37.931 C 293.493 37.685,292.153 35.409,291.829 35.104 C 291.673 34.958,291.070 33.878,290.205 32.195 C 289.846 31.497,289.496 30.872,289.427 30.806 C 289.359 30.740,289.103 30.373,288.859 29.991 C 287.990 28.628,283.715 24.128,283.284 24.123 C 283.119 24.121,282.985 24.029,282.985 23.918 C 282.985 23.808,282.609 23.514,282.149 23.267 C 281.690 23.019,281.313 22.742,281.313 22.651 C 281.313 22.560,280.991 22.415,280.597 22.328 C 280.203 22.242,279.881 22.097,279.881 22.008 C 279.881 21.830,278.115 21.015,277.730 21.015 C 277.599 21.015,277.493 20.907,277.493 20.776 C 277.493 20.645,277.230 20.537,276.910 20.537 C 276.589 20.537,276.264 20.436,276.188 20.312 C 276.111 20.189,275.567 20.015,274.980 19.927 C 274.392 19.839,273.910 19.671,273.910 19.555 C 273.910 19.439,273.556 19.343,273.122 19.343 C 272.689 19.343,272.226 19.235,272.093 19.102 C 271.832 18.841,265.943 18.611,264.000 18.786 " stroke="none" fill="#ff870a" fill-rule="evenodd"></path><path id="path3" d="" stroke="none" fill="#00ff00" fill-rule="evenodd"></path><path id="path4" d="" stroke="none" fill="#ffff00" fill-rule="evenodd"></path></g></svg>