<svg viewBox="0 0 48 48" xmlns="http://www.w3.org/2000/svg"><g fill="none"><path d="M34.013 8.313l-9.025 5.127a2.001 2.001 0 0 1-1.976 0l-9.024-5.127C13.682 8.136 13.34 8 13 8c-.34 0-.682.137-.988.313l-9 5.112A2.002 2.002 0 0 0 2 15.165v11.422c0 .72.388 1.383 1.013 1.74l20 11.363c.307.175.647.313.987.313.34 0 .683-.138.988-.313l20-11.362A2.002 2.002 0 0 0 46 26.588V15.164c0-.72-.388-1.382-1.013-1.74l-9-5.113C35.68 8.137 35.34 8 35 8c-.34 0-.682.137-.987.313z" fill="#EA4335"/><path fill="#FFF" d="M35.25 20.25L45 14.5 35.25 9z"/></g></svg>