<svg viewBox="0 0 48 48" xmlns="http://www.w3.org/2000/svg"><g fill="none" fill-rule="evenodd"><path d="M7.291 26.561c.51-.433.762-1.091.729-1.76a16.267 16.267 0 0 1 0-1.603c.033-.668-.218-1.326-.729-1.76l-3.57-3.028a2 2 0 0 1-.439-2.525l3.33-5.77a2 2 0 0 1 2.407-.883l4.407 1.578c.63.226 1.329.113 1.891-.251.447-.29.91-.558 1.386-.802.596-.306 1.042-.853 1.162-1.512l.836-4.603A2 2 0 0 1 20.67 2h6.662A2 2 0 0 1 29.3 3.642l.837 4.603c.12.659.565 1.206 1.16 1.512.477.244.94.512 1.387.802.563.364 1.26.477 1.891.25l4.407-1.577a2 2 0 0 1 2.406.883l3.331 5.77a2 2 0 0 1-.438 2.525l-3.571 3.029c-.51.433-.762 1.091-.729 1.76a16.267 16.267 0 0 1 0 1.603c-.033.668.219 1.326.729 1.76l3.57 3.028a2 2 0 0 1 .439 2.525l-3.33 5.77a2 2 0 0 1-2.407.883l-4.407-1.578c-.63-.226-1.328-.113-1.891.251-.447.29-.91.558-1.386.802-.596.306-1.042.853-1.162 1.512l-.836 4.603A2 2 0 0 1 27.33 46h-6.662a2 2 0 0 1-1.968-1.642l-.836-4.603c-.12-.659-.566-1.206-1.162-1.512a15.99 15.99 0 0 1-1.386-.802c-.563-.364-1.26-.477-1.891-.25l-4.407 1.577a2 2 0 0 1-2.406-.883l-3.331-5.77a2 2 0 0 1 .438-2.525l3.571-3.029z" fill="#EA4335"/><path fill="#FFF" fill-rule="nonzero" d="M19 31l11.5-6.5L19 18z"/></g></svg>